<svg xmlns="http://www.w3.org/2000/svg" version="1.1" xmlns:xlink="http://www.w3.org/1999/xlink" xmlns:svgjs="http://svgjs.dev/svgjs" width="1000" height="1000" viewBox="0 0 1000 1000"><rect width="1000" height="1000" fill="#ffffff"></rect><g transform="matrix(0.7,0,0,0.7,149.5757874836218,423.458169089696)"><svg viewBox="0 0 396 87" data-background-color="#ffffff" preserveAspectRatio="xMidYMid meet" height="219" width="1000" xmlns="http://www.w3.org/2000/svg" xmlns:xlink="http://www.w3.org/1999/xlink"><g id="tight-bounds" transform="matrix(1,0,0,1,0.23998314363780082,-0.06138754601141727)"><svg viewBox="0 0 395.52 87.12277445990989" height="87.12277445990989" width="395.52"><g><svg viewBox="0 0 395.52 87.12277445990989" height="87.12277445990989" width="395.52"><g><svg viewBox="0 0 395.52 87.12277445990989" height="87.12277445990989" width="395.52"><g id="textblocktransform"><svg viewBox="0 0 395.52 87.12277445990989" height="87.12277445990989" width="395.52" id="textblock"><g><svg viewBox="0 0 395.52 46.98986150508927" height="46.98986150508927" width="395.52"><g transform="matrix(1,0,0,1,0,0)"><svg width="395.52" viewBox="3.700000047683716 -35 299.6299743652344 35.599998474121094" height="46.98986150508927" data-palette-color="#7a26c1"><path d="M18.6-34.4Q36.65-34.4 36.65-17.2L36.65-17.2Q36.65 0 18.6 0L18.6 0 3.7 0 3.7-34.4 18.6-34.4ZM14.75-26.15L14.75-8.25 18.4-8.25Q25.35-8.25 25.35-15.7L25.35-15.7 25.35-18.7Q25.35-26.15 18.4-26.15L18.4-26.15 14.75-26.15ZM75.25-23.85Q75.25-20.7 73.55-18.15 71.85-15.6 68.6-14.4L68.6-14.4 76.25 0 63.85 0 57.75-12.55 53.65-12.55 53.65 0 42.6 0 42.6-34.4 63.65-34.4Q67.35-34.4 69.97-32.98 72.6-31.55 73.92-29.13 75.25-26.7 75.25-23.85L75.25-23.85ZM64-23.4Q64-24.75 63.1-25.65 62.2-26.55 60.9-26.55L60.9-26.55 53.65-26.55 53.65-20.2 60.9-20.2Q62.2-20.2 63.1-21.13 64-22.05 64-23.4L64-23.4ZM97.75-35Q106.65-35 111.5-30.45 116.35-25.9 116.35-17.2L116.35-17.2Q116.35-8.5 111.5-3.95 106.65 0.6 97.75 0.6L97.75 0.6Q88.85 0.6 84.02-3.93 79.2-8.45 79.2-17.2L79.2-17.2Q79.2-25.95 84.02-30.48 88.85-35 97.75-35L97.75-35ZM97.75-26.75Q94.2-26.75 92.35-24.6 90.5-22.45 90.5-18.8L90.5-18.8 90.5-15.6Q90.5-11.95 92.35-9.8 94.2-7.65 97.75-7.65L97.75-7.65Q101.3-7.65 103.17-9.8 105.05-11.95 105.05-15.6L105.05-15.6 105.05-18.8Q105.05-22.45 103.17-24.6 101.3-26.75 97.75-26.75L97.75-26.75ZM141.59-34.4Q144.79-34.4 147.29-32.93 149.79-31.45 151.19-28.88 152.59-26.3 152.59-23.1L152.59-23.1 152.59-22.45Q152.59-19.25 151.19-16.65 149.79-14.05 147.29-12.58 144.79-11.1 141.59-11.1L141.59-11.1 133.34-11.1 133.34 0 122.29 0 122.29-34.4 141.59-34.4ZM133.34-26.25L133.34-19.15 137.89-19.15Q139.64-19.15 140.52-20.05 141.39-20.95 141.39-22.5L141.39-22.5 141.39-22.9Q141.39-24.5 140.52-25.38 139.64-26.25 137.89-26.25L137.89-26.25 133.34-26.25ZM189.44-25.6L178.19-25.6 178.19 0 167.14 0 167.14-25.6 155.84-25.6 155.84-34.4 189.44-34.4 189.44-25.6ZM225.84 0L214.14 0 212.69-4.85 200.64-4.85 199.19 0 187.89 0 200.44-34.4 213.29-34.4 225.84 0ZM206.59-24.8L202.94-12.55 210.39-12.55 206.79-24.8 206.59-24.8ZM244.44-35Q251.04-35 255.29-32.33 259.54-29.65 259.64-24.4L259.64-24.4 259.64-23.8 249.29-23.8 249.29-24Q249.29-25.5 248.19-26.5 247.09-27.5 244.84-27.5L244.84-27.5Q242.64-27.5 241.46-26.85 240.29-26.2 240.29-25.25L240.29-25.25Q240.29-23.9 241.89-23.25 243.49-22.6 247.04-21.9L247.04-21.9Q251.19-21.05 253.86-20.13 256.54-19.2 258.54-17.1 260.54-15 260.59-11.4L260.59-11.4Q260.59-5.3 256.46-2.35 252.34 0.6 245.44 0.6L245.44 0.6Q237.39 0.6 232.91-2.1 228.44-4.8 228.44-11.65L228.44-11.65 238.89-11.65Q238.89-9.05 240.24-8.18 241.59-7.3 244.44-7.3L244.44-7.3Q246.54-7.3 247.91-7.75 249.29-8.2 249.29-9.6L249.29-9.6Q249.29-10.85 247.76-11.48 246.24-12.1 242.79-12.8L242.79-12.8Q238.59-13.7 235.84-14.68 233.09-15.65 231.04-17.9 228.99-20.15 228.99-24L228.99-24Q228.99-29.65 233.36-32.33 237.74-35 244.44-35L244.44-35ZM277.13-19.7L289.38-34.4 303.08-34.4 290.73-20.25 303.33 0 290.28 0 283.13-12.6 277.13-7.7 277.13 0 266.08 0 266.08-34.4 277.13-34.4 277.13-19.7Z" opacity="1" transform="matrix(1,0,0,1,0,0)" fill="#000000" class="undefined-text-0" data-fill-palette-color="primary" id="text-0"></path></svg></g></svg></g><g transform="matrix(1,0,0,1,164.73489244091476,58.083040049764726)"><svg viewBox="0 0 230.78510755908522 29.03973441014517" height="29.03973441014517" width="230.78510755908522"><g transform="matrix(1,0,0,1,0,0)"><svg width="230.78510755908522" viewBox="2.9000000953674316 -35 278.52001953125 35.04999923706055" height="29.03973441014517" data-palette-color="#7a26c1"><path d="M14.5 0L9.85 0 9.85-30.35 2.9-30.35 2.9-35 21.45-35 21.45-30.35 14.5-30.35 14.5 0ZM25.1 0.05L20.45 0.05 27.5-34.95 32.05-34.95 39 0.05 34.35 0.05 33-6.5 26.35-6.5 25.1 0.05ZM29.8-23.55L27.25-11.1 32.2-11.1 29.8-23.55ZM56.55 0L45.2 0Q43.7 0 42.64-1.05 41.59-2.1 41.59-3.6L41.59-3.6 41.59-11.35 46.24-10.3 46.24-6.45Q46.24-5.7 46.77-5.18 47.3-4.65 47.99-4.65L47.99-4.65 53.7-4.65Q54.45-4.65 54.97-5.18 55.5-5.7 55.5-6.45L55.5-6.45 55.5-15.25Q55.5-16 54.97-16.53 54.45-17.05 53.7-17.05L53.7-17.05 45.2-17.05Q43.7-17.05 42.64-18.1 41.59-19.15 41.59-20.65L41.59-20.65 41.59-31.4Q41.59-32.9 42.64-33.95 43.7-35 45.2-35L45.2-35 56.55-35Q58.05-35 59.09-33.95 60.14-32.9 60.14-31.4L60.14-31.4 60.14-26 55.5-27.1 55.5-28.55Q55.5-29.3 54.97-29.83 54.45-30.35 53.7-30.35L53.7-30.35 47.99-30.35Q47.3-30.35 46.77-29.83 46.24-29.3 46.24-28.55L46.24-28.55 46.24-23.5Q46.24-22.75 46.77-22.23 47.3-21.7 47.99-21.7L47.99-21.7 56.55-21.7Q58.05-21.7 59.09-20.65 60.14-19.6 60.14-18.1L60.14-18.1 60.14-3.6Q60.14-2.1 59.09-1.05 58.05 0 56.55 0L56.55 0ZM68.39 0L63.74 0 63.74-35 68.39-35 68.39-11.65 77.64-35 82.29-35 75.34-17.5 82.29 0 77.64 0 73.04-11.65 68.39 0ZM99.84 0L88.49 0Q86.99 0 85.94-1.05 84.89-2.1 84.89-3.6L84.89-3.6 84.89-11.35 89.54-10.3 89.54-6.45Q89.54-5.7 90.06-5.18 90.59-4.65 91.29-4.65L91.29-4.65 96.99-4.65Q97.74-4.65 98.27-5.18 98.79-5.7 98.79-6.45L98.79-6.45 98.79-15.25Q98.79-16 98.27-16.53 97.74-17.05 96.99-17.05L96.99-17.05 88.49-17.05Q86.99-17.05 85.94-18.1 84.89-19.15 84.89-20.65L84.89-20.65 84.89-31.4Q84.89-32.9 85.94-33.95 86.99-35 88.49-35L88.49-35 99.84-35Q101.34-35 102.39-33.95 103.44-32.9 103.44-31.4L103.44-31.4 103.44-26 98.79-27.1 98.79-28.55Q98.79-29.3 98.27-29.83 97.74-30.35 96.99-30.35L96.99-30.35 91.29-30.35Q90.59-30.35 90.06-29.83 89.54-29.3 89.54-28.55L89.54-28.55 89.54-23.5Q89.54-22.75 90.06-22.23 90.59-21.7 91.29-21.7L91.29-21.7 99.84-21.7Q101.34-21.7 102.39-20.65 103.44-19.6 103.44-18.1L103.44-18.1 103.44-3.6Q103.44-2.1 102.39-1.05 101.34 0 99.84 0L99.84 0ZM121.09 0L116.44 0 116.44-35 131.44-35Q132.88-35 133.94-33.95 134.99-32.9 134.99-31.4L134.99-31.4 134.99-20.65Q134.99-19.15 133.94-18.1 132.88-17.05 131.44-17.05L131.44-17.05 130.38-17.05 134.99 0 130.38 0 125.73-17.05 121.09-17.05 121.09 0ZM121.09-30.35L121.09-21.7 128.59-21.7Q129.28-21.7 129.84-22.23 130.38-22.75 130.38-23.5L130.38-23.5 130.38-28.55Q130.38-29.3 129.84-29.83 129.28-30.35 128.59-30.35L128.59-30.35 121.09-30.35ZM157.18 0L138.58 0 138.58-35 157.18-35 157.18-30.4 143.23-30.4 143.23-21.7 152.53-21.7 151.48-17.05 143.23-17.05 143.23-4.65 157.18-4.65 157.18 0ZM165.53 0L160.88 0 160.88-35 165.53-35 172.48-13.65 179.43-35 184.08-35 184.08 0 179.43 0 179.43-20.8 174.78-6.55 170.18-6.55 165.53-20.8 165.53 0ZM192.93 0L188.28 0 188.28-35 192.93-35 192.93 0ZM201.28 0L196.63 0 196.63-35 201.28-35 210.58-11.65 210.58-35 215.23-35 215.23 0 210.58 0 201.28-23.35 201.28 0ZM233.92 0L218.92 0 218.92-35 233.92-35Q235.37-35 236.42-33.95 237.47-32.9 237.47-31.4L237.47-31.4 237.47-3.6Q237.47-2.1 236.42-1.05 235.37 0 233.92 0L233.92 0ZM223.57-30.35L223.57-4.65 231.07-4.65Q231.77-4.65 232.32-5.18 232.87-5.7 232.87-6.45L232.87-6.45 232.87-28.55Q232.87-29.3 232.32-29.83 231.77-30.35 231.07-30.35L231.07-30.35 223.57-30.35ZM259.77 0L241.17 0 241.17-35 259.77-35 259.77-30.4 245.82-30.4 245.82-21.7 255.12-21.7 254.07-17.05 245.82-17.05 245.82-4.65 259.77-4.65 259.77 0ZM267.52 0L262.87 0 262.87-35 277.87-35Q279.32-35 280.37-33.95 281.42-32.9 281.42-31.4L281.42-31.4 281.42-20.65Q281.42-19.15 280.37-18.1 279.32-17.05 277.87-17.05L277.87-17.05 276.82-17.05 281.42 0 276.82 0 272.17-17.05 267.52-17.05 267.52 0ZM267.52-30.35L267.52-21.7 275.02-21.7Q275.72-21.7 276.27-22.23 276.82-22.75 276.82-23.5L276.82-23.5 276.82-28.55Q276.82-29.3 276.27-29.83 275.72-30.35 275.02-30.35L275.02-30.35 267.52-30.35Z" opacity="1" transform="matrix(1,0,0,1,0,0)" fill="#000000" class="undefined-text-1" data-fill-palette-color="secondary" id="text-1"></path></svg></g></svg></g></svg></g></svg></g></svg></g><defs></defs></svg><rect width="395.52" height="87.12277445990989" fill="none" stroke="none" visibility="hidden"></rect></g></svg></g></svg>